<?xml version="1.0" standalone="no"?>
<!DOCTYPE svg PUBLIC "-//W3C//DTD SVG 20010904//EN"
 "http://www.w3.org/TR/2001/REC-SVG-20010904/DTD/svg10.dtd">
<svg version="1.0" xmlns="http://www.w3.org/2000/svg"
 width="3464.000000pt" height="3464.000000pt" viewBox="0 0 3464.000000 3464.000000"
 preserveAspectRatio="xMidYMid meet">

<g transform="translate(0.000000,3464.000000) scale(0.100000,-0.100000)"
fill="#000000" stroke="none">
<path d="M12845 30075 c-175 -31 -340 -119 -470 -250 -186 -186 -274 -413
-262 -675 19 -408 296 -736 707 -838 59 -15 432 -17 4130 -22 3677 -6 4082 -8
4244 -23 1015 -94 1850 -328 2771 -776 1081 -526 1962 -1245 2711 -2211 609
-786 1125 -1787 1390 -2700 391 -1343 404 -2842 38 -4161 -270 -972 -794
-1992 -1452 -2828 -797 -1011 -1759 -1761 -2953 -2301 -759 -344 -1539 -551
-2409 -641 -281 -28 -439 -30 -4060 -33 -3341 -3 -3109 1 -3330 -56 -337 -87
-629 -281 -790 -527 -55 -83 -106 -201 -123 -279 -6 -30 -15 -54 -19 -54 -12
0 -10 -7562 2 -7697 11 -127 29 -211 66 -316 132 -364 417 -633 781 -735 l98
-27 470 0 470 0 100 28 c419 119 724 451 823 897 l25 115 4 3447 4 3447 2602
4 c2778 4 2673 2 3162 52 834 86 1668 287 2440 588 1563 611 2862 1541 3920
2807 810 970 1476 2198 1830 3375 283 939 409 1872 392 2895 -8 457 -35 825
-88 1205 -147 1048 -432 1957 -920 2935 -404 809 -843 1466 -1436 2147 -180
207 -687 715 -883 885 -821 713 -1697 1243 -2735 1657 -992 395 -2041 619
-3095 660 -408 17 -8066 22 -8155 6z"/>
<path d="M12651 27824 c-178 -39 -361 -172 -449 -326 -80 -140 -111 -333 -78
-488 50 -238 230 -436 471 -518 l80 -27 4000 -6 c4031 -5 4057 -5 4325 -40
163 -20 500 -79 627 -110 672 -160 1347 -449 1925 -825 938 -610 1698 -1508
2195 -2594 306 -666 464 -1277 524 -2015 16 -194 16 -708 0 -900 -63 -774
-242 -1423 -586 -2120 -513 -1040 -1257 -1884 -2180 -2472 -767 -488 -1600
-794 -2460 -902 -348 -44 -332 -44 -2260 -48 -1810 -4 -1861 -5 -1935 -24
-132 -34 -233 -91 -325 -183 -92 -91 -141 -170 -177 -286 -19 -62 -23 -96 -22
-195 0 -104 4 -130 28 -200 36 -105 76 -173 144 -246 97 -105 211 -173 357
-211 40 -10 383 -12 1770 -10 1707 3 2052 8 2360 37 808 76 1578 277 2280 595
720 326 1299 691 1860 1174 181 156 557 531 716 716 405 468 735 955 1017
1500 479 926 728 1831 793 2885 15 244 6 869 -15 1100 -105 1115 -402 2051
-967 3040 -467 818 -1100 1562 -1814 2130 -1094 872 -2474 1424 -3870 1550
-372 33 -608 35 -4440 34 -3231 -1 -3840 -3 -3894 -15z"/>
<path d="M15135 25880 l-2630 -5 -57 -23 c-209 -84 -337 -270 -338 -487 0
-223 161 -434 380 -496 36 -10 837 -13 4030 -13 l3985 -1 150 -22 c568 -84
926 -192 1410 -427 548 -266 1001 -616 1406 -1086 462 -537 833 -1258 989
-1925 134 -570 151 -1208 49 -1785 -171 -965 -737 -1947 -1499 -2604 -666
-572 -1505 -945 -2355 -1045 -265 -32 -365 -33 -2140 -30 l-1790 4 -60 -23
c-182 -69 -308 -220 -337 -405 -37 -243 106 -478 342 -559 l65 -23 1805 0
c1895 0 1900 0 2265 46 636 79 1200 251 1787 545 862 432 1588 1082 2120 1899
354 543 609 1133 747 1730 158 682 181 1438 65 2145 -86 523 -233 981 -478
1485 -582 1194 -1509 2107 -2666 2623 -627 280 -1114 405 -1835 473 -148 14
-1771 17 -5410 9z"/>
<path d="M13892 23925 c-23 -399 -82 -771 -178 -1125 -347 -1272 -1140 -2370
-2244 -3107 -370 -247 -808 -464 -1250 -618 -381 -132 -925 -242 -1358 -274
-129 -9 -174 -21 -81 -21 138 0 531 -54 778 -106 1221 -257 2344 -947 3124
-1919 677 -846 1066 -1806 1179 -2915 l12 -125 8 110 c16 231 72 571 139 845
142 575 396 1155 726 1659 119 182 290 410 423 566 127 148 440 462 576 578
654 556 1411 950 2211 1151 311 78 697 140 952 152 72 4 128 11 125 16 -3 4
-27 8 -54 8 -103 0 -430 39 -625 75 -1138 209 -2157 761 -2956 1601 -371 391
-660 799 -904 1279 -355 697 -554 1455 -583 2215 l-7 175 -13 -220z"/>
</g>
</svg>
